IKResults
version=1
nRows=14
nColumns=24
inDegrees=yes

Units are S.I. units (second, meters, Newtons, ...)
Angles are in degrees.

endheader
time	pelvis_tilt	pelvis_list	pelvis_rotation	pelvis_tx	pelvis_ty	pelvis_tz	hip_flexion_r	hip_adduction_r	hip_rotation_r	knee_angle_r	ankle_angle_r	subtalar_angle_r	mtp_angle_r	hip_flexion_l	hip_adduction_l	hip_rotation_l	knee_angle_l	ankle_angle_l	subtalar_angle_l	mtp_angle_l	lumbar_extension	lumbar_bending	lumbar_rotation
      4.98000000	     12.93273533	      2.77302512	      4.84412604	     -0.68922905	      1.05571819	     -0.11282130	    -12.75463202	     -3.06446837	    -21.38310207	     -1.31355460	      4.95468362	     13.78625452	      0.00000000	    -11.45750649	      0.58397789	    -11.87839145	     -1.51180154	      2.00829579	     10.09092897	      0.00000000	    -40.52362050	     -0.32087396	     -1.30001664
      5.00000000	     13.69598514	      2.84808966	      4.84700832	     -0.68641646	      1.05649883	     -0.11318935	    -13.91518085	     -3.03769574	    -21.58127131	     -1.10792961	      5.10945592	     14.04573897	      0.00000000	    -12.60738281	      0.60927346	    -11.90939240	     -1.31220359	      2.18912285	     10.27717345	      0.00000000	    -40.43803052	     -0.33333894	     -1.31563871
      5.02000000	     14.42855272	      2.90652667	      4.79663906	     -0.68360901	      1.05723100	     -0.11352626	    -15.02290971	     -3.01292818	    -21.69331478	     -0.91721550	      5.25655041	     14.25705882	      0.00000000	    -13.72761052	      0.63801415	    -11.94319183	     -1.10689160	      2.34033075	     10.34447702	      0.00000000	    -40.32907353	     -0.36446944	     -1.28657357
      5.04000000	     15.12896005	      2.95134718	      4.79247064	     -0.68081474	      1.05792033	     -0.11386431	    -16.10459208	     -2.95452728	    -21.82779818	     -0.71200637	      5.36864164	     14.40546822	      0.00000000	    -14.77867608	      0.63239858	    -11.97593902	     -0.95720128	      2.53208364	     10.49908966	      0.00000000	    -40.19843791	     -0.36398960	     -1.31501831
      5.06000000	     15.84057146	      2.98799257	      4.72504294	     -0.67799793	      1.05860045	     -0.11416076	    -17.17826045	     -2.90956965	    -21.88606043	     -0.53076346	      5.49594712	     14.53871141	      0.00000000	    -15.86230505	      0.64130310	    -12.03607502	     -0.77952332	      2.70215739	     10.58220971	      0.00000000	    -40.08680214	     -0.38971245	     -1.29774304
      5.08000000	     16.54009730	      3.03841380	      4.67855236	     -0.67516255	      1.05924188	     -0.11446291	    -18.24823093	     -2.87096856	    -21.96507405	     -0.34368768	      5.62061907	     14.65233567	      0.00000000	    -16.92770179	      0.65859796	    -12.07630417	     -0.61467430	      2.88095282	     10.68908955	      0.00000000	    -39.96979488	     -0.41826868	     -1.32753441
      5.10000000	     17.22903777	      3.09564887	      4.59059504	     -0.67234485	      1.05984135	     -0.11473481	    -19.29108441	     -2.86229430	    -22.01583459	     -0.18080920	      5.76878943	     14.81041603	      0.00000000	    -17.99410932	      0.70286113	    -12.11605541	     -0.43156633	      3.03472691	     10.73814980	      0.00000000	    -39.85184055	     -0.47980494	     -1.31969117
      5.12000000	     17.88519305	      3.15856107	      4.54217380	     -0.66959765	      1.06037883	     -0.11498894	    -20.30904628	     -2.84351289	    -22.11373185	      0.00061410	      5.90152561	     14.96387514	      0.00000000	    -19.00344456	      0.73424924	    -12.12660216	     -0.27806577	      3.20797295	     10.83137103	      0.00000000	    -39.71639098	     -0.53125994	     -1.35242220
      5.14000000	     18.49445723	      3.20620982	      4.48574965	     -0.66695803	      1.06084469	     -0.11520814	    -21.25924124	     -2.82098126	    -22.18978385	      0.16788280	      6.03342970	     15.14077203	      0.00000000	    -19.95114641	      0.75531516	    -12.16149995	     -0.12904756	      3.37720859	     10.93126790	      0.00000000	    -39.55633986	     -0.57938219	     -1.35810970
      5.16000000	     19.04068911	      3.24334667	      4.45109698	     -0.66442404	      1.06123646	     -0.11541458	    -22.13251824	     -2.78428756	    -22.28172522	      0.33422492	      6.15256547	     15.29684469	      0.00000000	    -20.81002943	      0.75924672	    -12.20399418	      0.00188565	      3.54966265	     11.06831763	      0.00000000	    -39.36063009	     -0.61344435	     -1.38909961
      5.18000000	     19.52831237	      3.26699547	      4.39293551	     -0.66198191	      1.06156765	     -0.11558996	    -22.91386111	     -2.75471331	    -22.34960413	      0.47054302	      6.28181389	     15.45362057	      0.00000000	    -21.60200067	      0.76655486	    -12.27004235	      0.13976436	      3.69754471	     11.17744236	      0.00000000	    -39.13514360	     -0.65517710	     -1.39835859
      5.20000000	     19.96526652	      3.29726006	      4.34670457	     -0.65966538	      1.06184633	     -0.11573477	    -23.61175326	     -2.73632759	    -22.41281559	      0.56320512	      6.45399309	     15.57009075	      0.00000000	    -22.31279733	      0.77782652	    -12.31627555	      0.24599619	      3.85499650	     11.27127523	      0.00000000	    -38.89342980	     -0.70520905	     -1.42966100
      5.22000000	     20.41999090	      3.31745592	      4.29068304	     -0.65733997	      1.06214710	     -0.11580133	    -24.33436615	     -2.70376751	    -22.47464599	      0.67552741	      6.57504416	     15.71339970	      0.00000000	    -23.06320594	      0.77967374	    -12.35621275	      0.39150447	      3.96328056	     11.35559401	      0.00000000	    -38.68628635	     -0.75753284	     -1.43337547
      5.24000000	     20.84191261	      3.34218643	      4.25792081	     -0.65509551	      1.06241041	     -0.11582212	    -25.00838517	     -2.67096433	    -22.53223529	      0.76715440	      6.69131268	     15.81733144	      0.00000000	    -23.75563023	      0.77402444	    -12.37222749	      0.50865370	      4.08283437	     11.43631880	      0.00000000	    -38.46818602	     -0.80284459	     -1.45183763
